<svg width="56" height="56" viewBox="0 0 56 56" fill="none" xmlns="http://www.w3.org/2000/svg">
<rect width="56" height="56" rx="16.8" fill="#643DFF" fill-opacity="0.2"/>
<path d="M38.5 25.0833V23.1C38.5 21.1398 38.5 20.1597 38.1185 19.411C37.783 18.7525 37.2475 18.217 36.589 17.8815C35.8403 17.5 34.8602 17.5 32.9 17.5H23.1C21.1398 17.5 20.1597 17.5 19.411 17.8815C18.7525 18.217 18.217 18.7525 17.8815 19.411C17.5 20.1597 17.5 21.1398 17.5 23.1V32.9C17.5 34.8602 17.5 35.8403 17.8815 36.589C18.217 37.2475 18.7525 37.783 19.411 38.1185C20.1597 38.5 21.1398 38.5 23.1 38.5H25.0833M34.2839 34.6632L32.3026 38.3428C31.9787 38.9443 31.8168 39.245 31.6194 39.3235C31.448 39.3916 31.2546 39.3747 31.0976 39.2779C30.9168 39.1664 30.8095 38.8422 30.5948 38.1937L27.4171 28.5965C27.2291 28.0286 27.1351 27.7447 27.2027 27.5556C27.2615 27.391 27.391 27.2615 27.5556 27.2027C27.7447 27.1351 28.0286 27.2291 28.5965 27.4171L38.1937 30.5948C38.8422 30.8095 39.1664 30.9169 39.2779 31.0976C39.3747 31.2546 39.3916 31.4481 39.3235 31.6194C39.245 31.8168 38.9443 31.9787 38.3428 32.3026L34.6632 34.2839C34.5715 34.3333 34.5257 34.3579 34.4856 34.3896C34.45 34.4178 34.4178 34.45 34.3896 34.4856C34.3579 34.5257 34.3333 34.5715 34.2839 34.6632Z" stroke="#643DFF" stroke-width="2.33333" stroke-linecap="round" stroke-linejoin="round"/>
</svg>
