<svg width="56" height="56" viewBox="0 0 56 56" fill="none" xmlns="http://www.w3.org/2000/svg">
<rect width="56" height="56" rx="16.8" fill="#643DFF" fill-opacity="0.2"/>
<path d="M28.0002 33.8333C28.0002 37.055 30.6118 39.6667 33.8335 39.6667C37.0552 39.6667 39.6668 37.055 39.6668 33.8333C39.6668 30.6117 37.0552 28 33.8335 28C30.6118 28 28.0002 30.6117 28.0002 33.8333ZM28.0002 33.8333C28.0002 32.5199 28.4343 31.3078 29.1668 30.3328V19.8333M28.0002 33.8333C28.0002 34.7962 28.2335 35.7047 28.6466 36.5051C27.6638 37.3354 25.3936 37.9167 22.7502 37.9167C19.2063 37.9167 16.3335 36.872 16.3335 35.5833V19.8333M29.1668 19.8333C29.1668 21.122 26.294 22.1667 22.7502 22.1667C19.2063 22.1667 16.3335 21.122 16.3335 19.8333M29.1668 19.8333C29.1668 18.5447 26.294 17.5 22.7502 17.5C19.2063 17.5 16.3335 18.5447 16.3335 19.8333M16.3335 30.3333C16.3335 31.622 19.2063 32.6667 22.7502 32.6667C25.304 32.6667 27.5094 32.1241 28.5422 31.3387M29.1668 25.0833C29.1668 26.372 26.294 27.4167 22.7502 27.4167C19.2063 27.4167 16.3335 26.372 16.3335 25.0833" stroke="#643DFF" stroke-width="2.33333" stroke-linecap="round" stroke-linejoin="round"/>
</svg>
