<svg width="42" height="20" viewBox="0 0 42 20" fill="none" xmlns="http://www.w3.org/2000/svg">
<g id="EventMint" clip-path="url(#clip0_88_2015)">
<g id="Group">
<path id="Vector" d="M41.4382 19.8496C40.3822 19.8496 39.3742 19.8496 38.3086 19.8496C38.3086 15.9424 38.3086 12.0544 38.3086 8.0224C35.9758 10.2208 33.7486 12.3136 31.483 14.4448C31.0414 14.0128 30.5998 13.6 30.1774 13.1872C26.9998 10.0576 23.8126 6.9376 20.635 3.808C20.3758 3.5584 20.1262 3.4336 19.7518 3.4432C16.075 3.4528 12.3982 3.4432 8.71177 3.4624C8.37577 3.4624 8.15497 3.376 7.96297 3.0784C7.35817 2.128 6.71497 1.2256 6.04297 0.236797C6.25417 0.227197 6.40777 0.207997 6.55177 0.207997C11.515 0.207997 16.4686 0.198397 21.4318 0.217597C21.6622 0.217597 21.9598 0.342397 22.123 0.515197C25.2238 3.5872 28.3054 6.6784 31.3966 9.7696C31.4734 9.8464 31.5598 9.9232 31.6846 10.0384C34.9198 6.8704 38.1454 3.712 41.4382 0.486397C41.4382 6.9952 41.4382 13.408 41.4382 19.8496Z" fill="#97FF98"/>
<path id="Vector_2" d="M8.65435 16.6528C8.99035 16.6528 9.23995 16.6528 9.49915 16.6528C15.7007 16.6528 21.9119 16.6528 28.1135 16.6432C28.4687 16.6432 28.7087 16.7392 28.9391 16.9984C29.7935 17.9392 30.6767 18.8608 31.5983 19.8496C21.2303 19.8496 10.9583 19.8496 0.647949 19.8496C1.05115 19.4368 1.42555 19.0336 1.81915 18.6592C5.30395 15.3376 8.79835 12.016 12.2927 8.7136C12.4463 8.5696 12.7055 8.464 12.9167 8.464C16.2287 8.4448 19.5407 8.4544 22.8527 8.4544C23.0159 8.4544 23.2367 8.4736 23.3327 8.5792C24.3311 9.5392 25.3103 10.528 26.3855 11.5936C26.1071 11.6032 25.9631 11.6224 25.8095 11.6224C22.0175 11.6224 18.2255 11.632 14.4335 11.6128C13.9919 11.6128 13.6655 11.7184 13.3391 12.0352C11.8415 13.5136 10.3055 14.9632 8.77915 16.432C8.75995 16.4704 8.74075 16.5088 8.65435 16.6528Z" fill="#97FF98"/>
</g>
</g>
<defs>
<clipPath id="clip0_88_2015">
<rect width="40.7904" height="19.6416" fill="white" transform="translate(0.647949 0.208008)"/>
</clipPath>
</defs>
</svg>
