<svg width="56" height="56" viewBox="0 0 56 56" fill="none" xmlns="http://www.w3.org/2000/svg">
<rect width="56" height="56" rx="16.8" fill="#643DFF" fill-opacity="0.2"/>
<path d="M29.7846 23.744C29.1167 24.2201 28.2995 24.5002 27.4168 24.5002C25.1617 24.5002 23.3335 22.672 23.3335 20.4168C23.3335 18.1617 25.1617 16.3335 27.4168 16.3335C28.8786 16.3335 30.1611 17.1016 30.8824 18.2563M21.0002 37.4352H24.0455C24.4426 37.4352 24.8372 37.4824 25.2221 37.5769L28.4399 38.3589C29.1381 38.5289 29.8654 38.5455 30.5709 38.4085L34.1286 37.7163C35.0685 37.5332 35.933 37.0832 36.6106 36.4241L39.1277 33.9755C39.8465 33.2774 39.8465 32.1447 39.1277 31.4454C38.4805 30.8158 37.4557 30.745 36.7235 31.2789L33.7899 33.4192C33.3697 33.7263 32.8585 33.8916 32.3328 33.8916H29.4999L31.3031 33.8916C32.3194 33.8916 33.1427 33.0907 33.1427 32.1021V31.7442C33.1427 30.9232 32.5683 30.2074 31.7499 30.009L28.9669 29.3322C28.5139 29.2223 28.0501 29.1668 27.5838 29.1668C26.4582 29.1668 24.4207 30.0988 24.4207 30.0988L21.0002 31.5292M37.3335 21.5835C37.3335 23.8387 35.5053 25.6668 33.2502 25.6668C30.995 25.6668 29.1668 23.8387 29.1668 21.5835C29.1668 19.3283 30.995 17.5002 33.2502 17.5002C35.5053 17.5002 37.3335 19.3283 37.3335 21.5835ZM16.3335 31.0335L16.3335 37.8002C16.3335 38.4536 16.3335 38.7803 16.4607 39.0298C16.5725 39.2493 16.751 39.4278 16.9705 39.5397C17.2201 39.6668 17.5468 39.6668 18.2002 39.6668H19.1335C19.7869 39.6668 20.1136 39.6668 20.3632 39.5397C20.5827 39.4278 20.7612 39.2493 20.873 39.0298C21.0002 38.7803 21.0002 38.4536 21.0002 37.8002V31.0335C21.0002 30.3801 21.0002 30.0534 20.873 29.8038C20.7612 29.5843 20.5827 29.4058 20.3632 29.294C20.1136 29.1668 19.7869 29.1668 19.1335 29.1668L18.2002 29.1668C17.5468 29.1668 17.2201 29.1668 16.9705 29.294C16.751 29.4058 16.5725 29.5843 16.4607 29.8038C16.3335 30.0534 16.3335 30.3801 16.3335 31.0335Z" stroke="#643DFF" stroke-width="2.33333" stroke-linecap="round" stroke-linejoin="round"/>
</svg>
