<svg width="56" height="56" viewBox="0 0 56 56" fill="none" xmlns="http://www.w3.org/2000/svg">
<rect width="56" height="56" rx="16.8" fill="#643DFF" fill-opacity="0.2"/>
<path d="M25.6668 23.3332V22.1665M25.6668 28.5832V27.4165M25.6668 33.8332V32.6665M20.0668 18.6665H35.9335C37.2403 18.6665 37.8937 18.6665 38.3928 18.9208C38.8319 19.1445 39.1888 19.5015 39.4125 19.9405C39.6668 20.4397 39.6668 21.093 39.6668 22.3998V23.9165C37.4117 23.9165 35.5835 25.7447 35.5835 27.9998C35.5835 30.255 37.4117 32.0832 39.6668 32.0832V33.5998C39.6668 34.9066 39.6668 35.56 39.4125 36.0591C39.1888 36.4982 38.8319 36.8551 38.3928 37.0789C37.8937 37.3332 37.2403 37.3332 35.9335 37.3332H20.0668C18.76 37.3332 18.1066 37.3332 17.6075 37.0789C17.1685 36.8551 16.8115 36.4982 16.5878 36.0591C16.3335 35.56 16.3335 34.9066 16.3335 33.5998V32.0832C18.5887 32.0832 20.4168 30.255 20.4168 27.9998C20.4168 25.7447 18.5887 23.9165 16.3335 23.9165V22.3998C16.3335 21.093 16.3335 20.4397 16.5878 19.9405C16.8115 19.5015 17.1685 19.1445 17.6075 18.9208C18.1066 18.6665 18.76 18.6665 20.0668 18.6665Z" stroke="#643DFF" stroke-width="1.4" stroke-linecap="round" stroke-linejoin="round"/>
</svg>
