<svg width="411" height="544" viewBox="0 0 411 544" fill="none" xmlns="http://www.w3.org/2000/svg">
<path fill-rule="evenodd" clip-rule="evenodd" d="M0 0H411V451H407C402.581 451 399 454.582 399 459V467C399 471.418 402.581 475 407 475H411V544H397.912V540.343C397.912 535.925 394.33 532.343 389.912 532.343H381.912C377.493 532.343 373.912 535.925 373.912 540.343V544H364.912V540.343C364.912 535.925 361.33 532.343 356.912 532.343H348.912C344.493 532.343 340.912 535.925 340.912 540.343V544H331.912V540.343C331.912 535.925 328.33 532.343 323.912 532.343H315.912C311.493 532.343 307.912 535.925 307.912 540.343V544H298.912V540.343C298.912 535.925 295.33 532.343 290.912 532.343H282.912C278.493 532.343 274.912 535.925 274.912 540.343V544H265.912V540.343C265.912 535.925 262.33 532.343 257.912 532.343H249.912C245.493 532.343 241.912 535.925 241.912 540.343V544H232.912V540.343C232.912 535.925 229.33 532.343 224.912 532.343H216.912C212.493 532.343 208.912 535.925 208.912 540.343V544H199.912V540.343C199.912 535.925 196.33 532.343 191.912 532.343H183.912C179.493 532.343 175.912 535.925 175.912 540.343V544H166.912V540.343C166.912 535.925 163.33 532.343 158.912 532.343H150.912C146.493 532.343 142.912 535.925 142.912 540.343V544H133.912V540.343C133.912 535.925 130.33 532.343 125.912 532.343H117.912C113.493 532.343 109.912 535.925 109.912 540.343V544H100.912V540.343C100.912 535.925 97.33 532.343 92.9118 532.343H84.9118C80.4935 532.343 76.9118 535.925 76.9118 540.343V544H67.9118V540.343C67.9118 535.925 64.33 532.343 59.9118 532.343H51.9118C47.4935 532.343 43.9118 535.925 43.9118 540.343V544H34.9118V540.343C34.9118 535.925 31.33 532.343 26.9118 532.343H18.9118C14.4935 532.343 10.9118 535.925 10.9118 540.343V544H0V475H3.91176C8.33004 475 11.9118 471.418 11.9118 467V459C11.9118 454.582 8.33004 451 3.91177 451H0V0Z" fill="#191D23"/>
</svg>
